<svg xmlns="http://www.w3.org/2000/svg" version="1.1" xmlns:xlink="http://www.w3.org/1999/xlink" xmlns:svgjs="http://svgjs.dev/svgjs" width="1440" height="560" preserveAspectRatio="none" viewBox="0 0 1440 560"><g mask="url(&quot;#SvgjsMask1043&quot;)" fill="none"><rect width="1440" height="560" x="0" y="0" fill="url(&quot;#SvgjsLinearGradient1044&quot;)"></rect><path d="M189.08 153.13L240.35 153.13L240.35 175.84L189.08 175.84z" stroke="#d3b714"></path><path d="M931.43 288.7 a25.23 25.23 0 1 0 50.46 0 a25.23 25.23 0 1 0 -50.46 0z" fill="#e73635"></path><path d="M353.22 483.52 a5.1 5.1 0 1 0 10.2 0 a5.1 5.1 0 1 0 -10.2 0z" fill="#037b0b"></path><path d="M1272.54 546.67L1308.79 546.67L1308.79 582.92L1272.54 582.92z" fill="#037b0b"></path><path d="M579.87 333.96a5.52 5.52 0 1 0 8.68 6.81z" fill="#037b0b"></path><path d="M1082.49 319.42a17.12 17.12 0 1 0-28.9 18.37z" fill="#d3b714"></path><path d="M1066.86 30.01L1072.78 30.01L1072.78 35.75L1066.86 35.75z" stroke="#d3b714"></path><path d="M168.91 10.52L175.99 10.52L175.99 50.26L168.91 50.26z" fill="#d3b714"></path><path d="M478 517.26 a13.79 13.79 0 1 0 27.58 0 a13.79 13.79 0 1 0 -27.58 0z" stroke="#e73635"></path><path d="M1068.63 469.63L1110.27 469.63L1110.27 510.45L1068.63 510.45z" stroke="#d3b714"></path><path d="M1056.18 209.51L1069.12 209.51L1069.12 222.45L1056.18 222.45z" fill="#037b0b"></path><path d="M1406.3 535.74L1441.84 535.74L1441.84 569.04L1406.3 569.04z" fill="#d3b714"></path><path d="M776.51 315.08L793.76 315.08L793.76 332.33L776.51 332.33z" fill="#037b0b"></path><path d="M1352.12 291.52L1405.6 291.52L1405.6 345L1352.12 345z" fill="#e73635"></path><path d="M1362.67 384.8 a11.65 11.65 0 1 0 23.3 0 a11.65 11.65 0 1 0 -23.3 0z" fill="#e73635"></path><path d="M724.21 541.62a47.11 47.11 0 1 0 93.58 10.96z" stroke="#037b0b"></path><path d="M516.97 315.37a29.6 29.6 0 1 0 47.14 35.81z" stroke="#d3b714"></path><path d="M325.6 513.87a53.93 53.93 0 1 0-103.07-31.78z" stroke="#d3b714"></path><path d="M906.46 27.4L917.44 27.4L917.44 56.46L906.46 56.46z" stroke="#037b0b"></path><path d="M757.49 390.03L776.53 390.03L776.53 409.07L757.49 409.07z" stroke="#037b0b"></path><path d="M523.42 32.81a23.61 23.61 0 1 0 25.77-39.56z" fill="#e73635"></path><path d="M801.65 469.17L826.57 469.17L826.57 491.33L801.65 491.33z" fill="#e73635"></path><path d="M940.53 556.31 a6.3 6.3 0 1 0 12.6 0 a6.3 6.3 0 1 0 -12.6 0z" stroke="#037b0b"></path><path d="M945.12 51.01L980.63 51.01L980.63 64.67L945.12 64.67z" stroke="#e73635"></path><path d="M773.35 317.59 a7.5 7.5 0 1 0 15 0 a7.5 7.5 0 1 0 -15 0z" fill="#d3b714"></path><path d="M1257.96 541.77a3.09 3.09 0 1 0-4.3 4.43z" stroke="#037b0b"></path><path d="M570.11 204.06L580.69 204.06L580.69 234.89L570.11 234.89z" stroke="#037b0b"></path><path d="M720.46 260.3a44.98 44.98 0 1 0-87.37-21.41z" stroke="#e73635"></path><path d="M715.3 213.74L742.53 213.74L742.53 240.97L715.3 240.97z" stroke="#037b0b"></path><path d="M1078.81 405.09L1090.18 405.09L1090.18 427.16L1078.81 427.16z" fill="#037b0b"></path><path d="M430.57 241.92a30.05 30.05 0 1 0-56.65 20.08z" fill="#d3b714"></path><path d="M1001.35 374.87 a54.65 54.65 0 1 0 109.3 0 a54.65 54.65 0 1 0 -109.3 0z" fill="#037b0b"></path><path d="M428.01 460.6 a7.68 7.68 0 1 0 15.36 0 a7.68 7.68 0 1 0 -15.36 0z" stroke="#e73635"></path></g><defs><mask id="SvgjsMask1043"><rect width="1440" height="560" fill="#ffffff"></rect></mask><linearGradient x1="15.28%" y1="-39.29%" x2="84.72%" y2="139.29%" gradientUnits="userSpaceOnUse" id="SvgjsLinearGradient1044"><stop stop-color="#0e2a47" offset="0"></stop><stop stop-color="rgba(158, 0, 75, 1)" offset="1"></stop></linearGradient></defs></svg>